<svg width="155" height="19" viewBox="0 0 155 19" fill="none" xmlns="http://www.w3.org/2000/svg">
<path d="M5.76172 18H2.04688L2.07031 15.2578H5.76172C6.68359 15.2578 7.46094 15.0508 8.09375 14.6367C8.72656 14.2148 9.20312 13.6016 9.52344 12.7969C9.85156 11.9922 10.0156 11.0195 10.0156 9.87891V9.04688C10.0156 8.17188 9.92188 7.40234 9.73438 6.73828C9.55469 6.07422 9.28516 5.51562 8.92578 5.0625C8.56641 4.60938 8.125 4.26953 7.60156 4.04297C7.07812 3.80859 6.47656 3.69141 5.79688 3.69141H1.97656V0.9375H5.79688C6.9375 0.9375 7.98047 1.13281 8.92578 1.52344C9.87891 1.90625 10.7031 2.45703 11.3984 3.17578C12.0938 3.89453 12.6289 4.75391 13.0039 5.75391C13.3867 6.74609 13.5781 7.85156 13.5781 9.07031V9.87891C13.5781 11.0898 13.3867 12.1953 13.0039 13.1953C12.6289 14.1953 12.0938 15.0547 11.3984 15.7734C10.7109 16.4844 9.88672 17.0352 8.92578 17.4258C7.97266 17.8086 6.91797 18 5.76172 18ZM4.03906 0.9375V18H0.523438V0.9375H4.03906ZM19.4844 5.32031V18H16.0977V5.32031H19.4844ZM15.8867 2.01562C15.8867 1.52344 16.0586 1.11719 16.4023 0.796875C16.7461 0.476563 17.207 0.316406 17.7852 0.316406C18.3555 0.316406 18.8125 0.476563 19.1562 0.796875C19.5078 1.11719 19.6836 1.52344 19.6836 2.01562C19.6836 2.50781 19.5078 2.91406 19.1562 3.23438C18.8125 3.55469 18.3555 3.71484 17.7852 3.71484C17.207 3.71484 16.7461 3.55469 16.4023 3.23438C16.0586 2.91406 15.8867 2.50781 15.8867 2.01562ZM29.1289 14.4961C29.1289 14.2539 29.0586 14.0352 28.918 13.8398C28.7773 13.6445 28.5156 13.4648 28.1328 13.3008C27.7578 13.1289 27.2148 12.9727 26.5039 12.832C25.8633 12.6914 25.2656 12.5156 24.7109 12.3047C24.1641 12.0859 23.6875 11.8242 23.2812 11.5195C22.8828 11.2148 22.5703 10.8555 22.3438 10.4414C22.1172 10.0195 22.0039 9.53906 22.0039 9C22.0039 8.46875 22.1172 7.96875 22.3438 7.5C22.5781 7.03125 22.9102 6.61719 23.3398 6.25781C23.7773 5.89062 24.3086 5.60547 24.9336 5.40234C25.5664 5.19141 26.2773 5.08594 27.0664 5.08594C28.168 5.08594 29.1133 5.26172 29.9023 5.61328C30.6992 5.96484 31.3086 6.44922 31.7305 7.06641C32.1602 7.67578 32.375 8.37109 32.375 9.15234H29C29 8.82422 28.9297 8.53125 28.7891 8.27344C28.6562 8.00781 28.4453 7.80078 28.1562 7.65234C27.875 7.49609 27.5078 7.41797 27.0547 7.41797C26.6797 7.41797 26.3555 7.48438 26.082 7.61719C25.8086 7.74219 25.5977 7.91406 25.4492 8.13281C25.3086 8.34375 25.2383 8.57812 25.2383 8.83594C25.2383 9.03125 25.2773 9.20703 25.3555 9.36328C25.4414 9.51172 25.5781 9.64844 25.7656 9.77344C25.9531 9.89844 26.1953 10.0156 26.4922 10.125C26.7969 10.2266 27.1719 10.3203 27.6172 10.4062C28.5312 10.5938 29.3477 10.8398 30.0664 11.1445C30.7852 11.4414 31.3555 11.8477 31.7773 12.3633C32.1992 12.8711 32.4102 13.5391 32.4102 14.3672C32.4102 14.9297 32.2852 15.4453 32.0352 15.9141C31.7852 16.3828 31.4258 16.793 30.957 17.1445C30.4883 17.4883 29.9258 17.7578 29.2695 17.9531C28.6211 18.1406 27.8906 18.2344 27.0781 18.2344C25.8984 18.2344 24.8984 18.0234 24.0781 17.6016C23.2656 17.1797 22.6484 16.6445 22.2266 15.9961C21.8125 15.3398 21.6055 14.668 21.6055 13.9805H24.8047C24.8203 14.4414 24.9375 14.8125 25.1562 15.0938C25.3828 15.375 25.668 15.5781 26.0117 15.7031C26.3633 15.8281 26.7422 15.8906 27.1484 15.8906C27.5859 15.8906 27.9492 15.832 28.2383 15.7148C28.5273 15.5898 28.7461 15.4258 28.8945 15.2227C29.0508 15.0117 29.1289 14.7695 29.1289 14.4961ZM39.8398 15.5977C40.2539 15.5977 40.6211 15.5195 40.9414 15.3633C41.2617 15.1992 41.5117 14.9727 41.6914 14.6836C41.8789 14.3867 41.9766 14.0391 41.9844 13.6406H45.1602C45.1523 14.5312 44.9141 15.3242 44.4453 16.0195C43.9766 16.707 43.3477 17.25 42.5586 17.6484C41.7695 18.0391 40.8867 18.2344 39.9102 18.2344C38.9258 18.2344 38.0664 18.0703 37.332 17.7422C36.6055 17.4141 36 16.9609 35.5156 16.3828C35.0312 15.7969 34.668 15.1172 34.4258 14.3438C34.1836 13.5625 34.0625 12.7266 34.0625 11.8359V11.4961C34.0625 10.5977 34.1836 9.76172 34.4258 8.98828C34.668 8.20703 35.0312 7.52734 35.5156 6.94922C36 6.36328 36.6055 5.90625 37.332 5.57812C38.0586 5.25 38.9102 5.08594 39.8867 5.08594C40.9258 5.08594 41.8359 5.28516 42.6172 5.68359C43.4062 6.08203 44.0234 6.65234 44.4688 7.39453C44.9219 8.12891 45.1523 9 45.1602 10.0078H41.9844C41.9766 9.58594 41.8867 9.20312 41.7148 8.85938C41.5508 8.51562 41.3086 8.24219 40.9883 8.03906C40.6758 7.82812 40.2891 7.72266 39.8281 7.72266C39.3359 7.72266 38.9336 7.82812 38.6211 8.03906C38.3086 8.24219 38.0664 8.52344 37.8945 8.88281C37.7227 9.23438 37.6016 9.63672 37.5312 10.0898C37.4688 10.5352 37.4375 11.0039 37.4375 11.4961V11.8359C37.4375 12.3281 37.4688 12.8008 37.5312 13.2539C37.5938 13.707 37.7109 14.1094 37.8828 14.4609C38.0625 14.8125 38.3086 15.0898 38.6211 15.293C38.9336 15.4961 39.3398 15.5977 39.8398 15.5977ZM46.5781 11.7891V11.543C46.5781 10.6133 46.7109 9.75781 46.9766 8.97656C47.2422 8.1875 47.6289 7.50391 48.1367 6.92578C48.6445 6.34766 49.2695 5.89844 50.0117 5.57812C50.7539 5.25 51.6055 5.08594 52.5664 5.08594C53.5273 5.08594 54.3828 5.25 55.1328 5.57812C55.8828 5.89844 56.5117 6.34766 57.0195 6.92578C57.5352 7.50391 57.9258 8.1875 58.1914 8.97656C58.457 9.75781 58.5898 10.6133 58.5898 11.543V11.7891C58.5898 12.7109 58.457 13.5664 58.1914 14.3555C57.9258 15.1367 57.5352 15.8203 57.0195 16.4062C56.5117 16.9844 55.8867 17.4336 55.1445 17.7539C54.4023 18.0742 53.5508 18.2344 52.5898 18.2344C51.6289 18.2344 50.7734 18.0742 50.0234 17.7539C49.2812 17.4336 48.6523 16.9844 48.1367 16.4062C47.6289 15.8203 47.2422 15.1367 46.9766 14.3555C46.7109 13.5664 46.5781 12.7109 46.5781 11.7891ZM49.9531 11.543V11.7891C49.9531 12.3203 50 12.8164 50.0938 13.2773C50.1875 13.7383 50.3359 14.1445 50.5391 14.4961C50.75 14.8398 51.0234 15.1094 51.3594 15.3047C51.6953 15.5 52.1055 15.5977 52.5898 15.5977C53.0586 15.5977 53.4609 15.5 53.7969 15.3047C54.1328 15.1094 54.4023 14.8398 54.6055 14.4961C54.8086 14.1445 54.957 13.7383 55.0508 13.2773C55.1523 12.8164 55.2031 12.3203 55.2031 11.7891V11.543C55.2031 11.0273 55.1523 10.543 55.0508 10.0898C54.957 9.62891 54.8047 9.22266 54.5938 8.87109C54.3906 8.51172 54.1211 8.23047 53.7852 8.02734C53.4492 7.82422 53.043 7.72266 52.5664 7.72266C52.0898 7.72266 51.6836 7.82422 51.3477 8.02734C51.0195 8.23047 50.75 8.51172 50.5391 8.87109C50.3359 9.22266 50.1875 9.62891 50.0938 10.0898C50 10.543 49.9531 11.0273 49.9531 11.543ZM64.7891 15.5391L67.6016 5.32031H71.1289L66.8516 18H64.7188L64.7891 15.5391ZM62.8555 5.32031L65.6797 15.5508L65.7383 18H63.5938L59.3164 5.32031H62.8555ZM78.3125 18.2344C77.3281 18.2344 76.4453 18.0781 75.6641 17.7656C74.8828 17.4453 74.2188 17.0039 73.6719 16.4414C73.1328 15.8789 72.7188 15.2266 72.4297 14.4844C72.1406 13.7344 71.9961 12.9375 71.9961 12.0938V11.625C71.9961 10.6641 72.1328 9.78516 72.4062 8.98828C72.6797 8.19141 73.0703 7.5 73.5781 6.91406C74.0938 6.32812 74.7188 5.87891 75.4531 5.56641C76.1875 5.24609 77.0156 5.08594 77.9375 5.08594C78.8359 5.08594 79.6328 5.23438 80.3281 5.53125C81.0234 5.82812 81.6055 6.25 82.0742 6.79688C82.5508 7.34375 82.9102 8 83.1523 8.76562C83.3945 9.52344 83.5156 10.3672 83.5156 11.2969V12.7031H73.4375V10.4531H80.1992V10.1953C80.1992 9.72656 80.1133 9.30859 79.9414 8.94141C79.7773 8.56641 79.5273 8.26953 79.1914 8.05078C78.8555 7.83203 78.4258 7.72266 77.9023 7.72266C77.457 7.72266 77.0742 7.82031 76.7539 8.01562C76.4336 8.21094 76.1719 8.48438 75.9688 8.83594C75.7734 9.1875 75.625 9.60156 75.5234 10.0781C75.4297 10.5469 75.3828 11.0625 75.3828 11.625V12.0938C75.3828 12.6016 75.4531 13.0703 75.5938 13.5C75.7422 13.9297 75.9492 14.3008 76.2148 14.6133C76.4883 14.9258 76.8164 15.168 77.1992 15.3398C77.5898 15.5117 78.0312 15.5977 78.5234 15.5977C79.1328 15.5977 79.6992 15.4805 80.2227 15.2461C80.7539 15.0039 81.2109 14.6406 81.5938 14.1562L83.2344 15.9375C82.9688 16.3203 82.6055 16.6875 82.1445 17.0391C81.6914 17.3906 81.1445 17.6797 80.5039 17.9062C79.8633 18.125 79.1328 18.2344 78.3125 18.2344ZM88.8125 8.08594V18H85.4375V5.32031H88.6133L88.8125 8.08594ZM92.6328 5.23828L92.5742 8.36719C92.4102 8.34375 92.2109 8.32422 91.9766 8.30859C91.75 8.28516 91.543 8.27344 91.3555 8.27344C90.8789 8.27344 90.4648 8.33594 90.1133 8.46094C89.7695 8.57812 89.4805 8.75391 89.2461 8.98828C89.0195 9.22266 88.8477 9.50781 88.7305 9.84375C88.6211 10.1797 88.5586 10.5625 88.543 10.9922L87.8633 10.7812C87.8633 9.96094 87.9453 9.20703 88.1094 8.51953C88.2734 7.82422 88.5117 7.21875 88.8242 6.70312C89.1445 6.1875 89.5352 5.78906 89.9961 5.50781C90.457 5.22656 90.9844 5.08594 91.5781 5.08594C91.7656 5.08594 91.957 5.10156 92.1523 5.13281C92.3477 5.15625 92.5078 5.19141 92.6328 5.23828ZM102.02 0.9375H104.996L109.379 13.4648L113.762 0.9375H116.738L110.574 18H108.184L102.02 0.9375ZM100.414 0.9375H103.379L103.918 13.1484V18H100.414V0.9375ZM115.379 0.9375H118.355V18H114.84V13.1484L115.379 0.9375ZM120.688 11.7891V11.543C120.688 10.6133 120.82 9.75781 121.086 8.97656C121.352 8.1875 121.738 7.50391 122.246 6.92578C122.754 6.34766 123.379 5.89844 124.121 5.57812C124.863 5.25 125.715 5.08594 126.676 5.08594C127.637 5.08594 128.492 5.25 129.242 5.57812C129.992 5.89844 130.621 6.34766 131.129 6.92578C131.645 7.50391 132.035 8.1875 132.301 8.97656C132.566 9.75781 132.699 10.6133 132.699 11.543V11.7891C132.699 12.7109 132.566 13.5664 132.301 14.3555C132.035 15.1367 131.645 15.8203 131.129 16.4062C130.621 16.9844 129.996 17.4336 129.254 17.7539C128.512 18.0742 127.66 18.2344 126.699 18.2344C125.738 18.2344 124.883 18.0742 124.133 17.7539C123.391 17.4336 122.762 16.9844 122.246 16.4062C121.738 15.8203 121.352 15.1367 121.086 14.3555C120.82 13.5664 120.688 12.7109 120.688 11.7891ZM124.062 11.543V11.7891C124.062 12.3203 124.109 12.8164 124.203 13.2773C124.297 13.7383 124.445 14.1445 124.648 14.4961C124.859 14.8398 125.133 15.1094 125.469 15.3047C125.805 15.5 126.215 15.5977 126.699 15.5977C127.168 15.5977 127.57 15.5 127.906 15.3047C128.242 15.1094 128.512 14.8398 128.715 14.4961C128.918 14.1445 129.066 13.7383 129.16 13.2773C129.262 12.8164 129.312 12.3203 129.312 11.7891V11.543C129.312 11.0273 129.262 10.543 129.16 10.0898C129.066 9.62891 128.914 9.22266 128.703 8.87109C128.5 8.51172 128.23 8.23047 127.895 8.02734C127.559 7.82422 127.152 7.72266 126.676 7.72266C126.199 7.72266 125.793 7.82422 125.457 8.02734C125.129 8.23047 124.859 8.51172 124.648 8.87109C124.445 9.22266 124.297 9.62891 124.203 10.0898C124.109 10.543 124.062 11.0273 124.062 11.543ZM138.148 8.08594V18H134.773V5.32031H137.949L138.148 8.08594ZM141.969 5.23828L141.91 8.36719C141.746 8.34375 141.547 8.32422 141.312 8.30859C141.086 8.28516 140.879 8.27344 140.691 8.27344C140.215 8.27344 139.801 8.33594 139.449 8.46094C139.105 8.57812 138.816 8.75391 138.582 8.98828C138.355 9.22266 138.184 9.50781 138.066 9.84375C137.957 10.1797 137.895 10.5625 137.879 10.9922L137.199 10.7812C137.199 9.96094 137.281 9.20703 137.445 8.51953C137.609 7.82422 137.848 7.21875 138.16 6.70312C138.48 6.1875 138.871 5.78906 139.332 5.50781C139.793 5.22656 140.32 5.08594 140.914 5.08594C141.102 5.08594 141.293 5.10156 141.488 5.13281C141.684 5.15625 141.844 5.19141 141.969 5.23828ZM149.164 18.2344C148.18 18.2344 147.297 18.0781 146.516 17.7656C145.734 17.4453 145.07 17.0039 144.523 16.4414C143.984 15.8789 143.57 15.2266 143.281 14.4844C142.992 13.7344 142.848 12.9375 142.848 12.0938V11.625C142.848 10.6641 142.984 9.78516 143.258 8.98828C143.531 8.19141 143.922 7.5 144.43 6.91406C144.945 6.32812 145.57 5.87891 146.305 5.56641C147.039 5.24609 147.867 5.08594 148.789 5.08594C149.688 5.08594 150.484 5.23438 151.18 5.53125C151.875 5.82812 152.457 6.25 152.926 6.79688C153.402 7.34375 153.762 8 154.004 8.76562C154.246 9.52344 154.367 10.3672 154.367 11.2969V12.7031H144.289V10.4531H151.051V10.1953C151.051 9.72656 150.965 9.30859 150.793 8.94141C150.629 8.56641 150.379 8.26953 150.043 8.05078C149.707 7.83203 149.277 7.72266 148.754 7.72266C148.309 7.72266 147.926 7.82031 147.605 8.01562C147.285 8.21094 147.023 8.48438 146.82 8.83594C146.625 9.1875 146.477 9.60156 146.375 10.0781C146.281 10.5469 146.234 11.0625 146.234 11.625V12.0938C146.234 12.6016 146.305 13.0703 146.445 13.5C146.594 13.9297 146.801 14.3008 147.066 14.6133C147.34 14.9258 147.668 15.168 148.051 15.3398C148.441 15.5117 148.883 15.5977 149.375 15.5977C149.984 15.5977 150.551 15.4805 151.074 15.2461C151.605 15.0039 152.062 14.6406 152.445 14.1562L154.086 15.9375C153.82 16.3203 153.457 16.6875 152.996 17.0391C152.543 17.3906 151.996 17.6797 151.355 17.9062C150.715 18.125 149.984 18.2344 149.164 18.2344Z" fill="url(#paint0_linear_266_423)"/>
<defs>
<linearGradient id="paint0_linear_266_423" x1="7.94267" y1="15.9444" x2="19.1318" y2="-27.8758" gradientUnits="userSpaceOnUse">
<stop stop-color="#373FFF"/>
<stop offset="1" stop-color="#3ACAF8"/>
</linearGradient>
</defs>
</svg>
