<svg width="132" height="24" viewBox="0 0 132 24" fill="none" xmlns="http://www.w3.org/2000/svg">
<path d="M12.0508 7.88672V10.6289H3.14453V7.88672H12.0508ZM4.1875 0.9375V18H0.671875V0.9375H4.1875ZM14.5586 0.9375V18H11.0547V0.9375H14.5586ZM20.9688 5.32031V18H17.582V5.32031H20.9688ZM17.3711 2.01562C17.3711 1.52344 17.543 1.11719 17.8867 0.796875C18.2305 0.476563 18.6914 0.316406 19.2695 0.316406C19.8398 0.316406 20.2969 0.476563 20.6406 0.796875C20.9922 1.11719 21.168 1.52344 21.168 2.01562C21.168 2.50781 20.9922 2.91406 20.6406 3.23438C20.2969 3.55469 19.8398 3.71484 19.2695 3.71484C18.6914 3.71484 18.2305 3.55469 17.8867 3.23438C17.543 2.91406 17.3711 2.50781 17.3711 2.01562ZM31.7852 5.32031H34.8438V17.5781C34.8438 18.7344 34.5859 19.7148 34.0703 20.5195C33.5625 21.332 32.8516 21.9453 31.9375 22.3594C31.0234 22.7812 29.9609 22.9922 28.75 22.9922C28.2188 22.9922 27.6562 22.9219 27.0625 22.7812C26.4766 22.6406 25.9141 22.4219 25.375 22.125C24.8438 21.8281 24.3984 21.4531 24.0391 21L25.5273 19.0078C25.918 19.4609 26.3711 19.8125 26.8867 20.0625C27.4023 20.3203 27.9727 20.4492 28.5977 20.4492C29.207 20.4492 29.7227 20.3359 30.1445 20.1094C30.5664 19.8906 30.8906 19.5664 31.1172 19.1367C31.3438 18.7148 31.457 18.2031 31.457 17.6016V8.25L31.7852 5.32031ZM23.2539 11.8125V11.5664C23.2539 10.5977 23.3711 9.71875 23.6055 8.92969C23.8477 8.13281 24.1875 7.44922 24.625 6.87891C25.0703 6.30859 25.6094 5.86719 26.2422 5.55469C26.875 5.24219 27.5898 5.08594 28.3867 5.08594C29.2305 5.08594 29.9375 5.24219 30.5078 5.55469C31.0781 5.86719 31.5469 6.3125 31.9141 6.89062C32.2812 7.46094 32.5664 8.13672 32.7695 8.91797C32.9805 9.69141 33.1445 10.5391 33.2617 11.4609V12C33.1445 12.8828 32.9688 13.7031 32.7344 14.4609C32.5 15.2188 32.1914 15.8828 31.8086 16.4531C31.4258 17.0156 30.9492 17.4531 30.3789 17.7656C29.8164 18.0781 29.1445 18.2344 28.3633 18.2344C27.582 18.2344 26.875 18.0742 26.2422 17.7539C25.6172 17.4336 25.082 16.9844 24.6367 16.4062C24.1914 15.8281 23.8477 15.1484 23.6055 14.3672C23.3711 13.5859 23.2539 12.7344 23.2539 11.8125ZM26.6289 11.5664V11.8125C26.6289 12.3359 26.6797 12.8242 26.7812 13.2773C26.8828 13.7305 27.0391 14.1328 27.25 14.4844C27.4688 14.8281 27.7383 15.0977 28.0586 15.293C28.3867 15.4805 28.7734 15.5742 29.2188 15.5742C29.8359 15.5742 30.3398 15.4453 30.7305 15.1875C31.1211 14.9219 31.4141 14.5586 31.6094 14.0977C31.8047 13.6367 31.918 13.1055 31.9492 12.5039V10.9688C31.9336 10.4766 31.8672 10.0352 31.75 9.64453C31.6328 9.24609 31.4688 8.90625 31.2578 8.625C31.0469 8.34375 30.7734 8.125 30.4375 7.96875C30.1016 7.8125 29.7031 7.73438 29.2422 7.73438C28.7969 7.73438 28.4102 7.83594 28.082 8.03906C27.7617 8.23438 27.4922 8.50391 27.2734 8.84766C27.0625 9.19141 26.9023 9.59766 26.793 10.0664C26.6836 10.5273 26.6289 11.0273 26.6289 11.5664ZM40.7617 0V18H37.3867V0H40.7617ZM40.2812 11.2148H39.3555C39.3633 10.332 39.4805 9.51953 39.707 8.77734C39.9336 8.02734 40.2578 7.37891 40.6797 6.83203C41.1016 6.27734 41.6055 5.84766 42.1914 5.54297C42.7852 5.23828 43.4414 5.08594 44.1602 5.08594C44.7852 5.08594 45.3516 5.17578 45.8594 5.35547C46.375 5.52734 46.8164 5.80859 47.1836 6.19922C47.5586 6.58203 47.8477 7.08594 48.0508 7.71094C48.2539 8.33594 48.3555 9.09375 48.3555 9.98438V18H44.957V9.96094C44.957 9.39844 44.875 8.95703 44.7109 8.63672C44.5547 8.30859 44.3242 8.07812 44.0195 7.94531C43.7227 7.80469 43.3555 7.73438 42.918 7.73438C42.4336 7.73438 42.0195 7.82422 41.6758 8.00391C41.3398 8.18359 41.0703 8.43359 40.8672 8.75391C40.6641 9.06641 40.5156 9.43359 40.4219 9.85547C40.3281 10.2773 40.2812 10.7305 40.2812 11.2148ZM57.5781 9.35156V12H50.957V9.35156H57.5781ZM67.8789 22.875V7.91016L68.3125 5.32031H71.2773V22.875H67.8789ZM59.8633 11.7891V11.543C59.8633 10.5742 59.9688 9.69531 60.1797 8.90625C60.3984 8.10938 60.7188 7.42969 61.1406 6.86719C61.5625 6.29688 62.0781 5.85938 62.6875 5.55469C63.3047 5.24219 64.0156 5.08594 64.8203 5.08594C65.5938 5.08594 66.2617 5.24219 66.8242 5.55469C67.3867 5.86719 67.8594 6.30859 68.2422 6.87891C68.6328 7.44922 68.9453 8.12109 69.1797 8.89453C69.4141 9.66797 69.5938 10.5156 69.7188 11.4375V11.9766C69.6016 12.8594 69.4219 13.6797 69.1797 14.4375C68.9453 15.1953 68.6328 15.8594 68.2422 16.4297C67.8594 17 67.3828 17.4453 66.8125 17.7656C66.25 18.0781 65.5781 18.2344 64.7969 18.2344C64.0078 18.2344 63.3047 18.0742 62.6875 17.7539C62.0781 17.4258 61.5625 16.9727 61.1406 16.3945C60.7188 15.8164 60.3984 15.1367 60.1797 14.3555C59.9688 13.5664 59.8633 12.7109 59.8633 11.7891ZM63.2383 11.543V11.7891C63.2383 12.3125 63.2812 12.8047 63.3672 13.2656C63.4531 13.7188 63.5898 14.1211 63.7773 14.4727C63.9727 14.8242 64.2227 15.1016 64.5273 15.3047C64.832 15.5 65.207 15.5977 65.6523 15.5977C66.2695 15.5977 66.7656 15.4648 67.1406 15.1992C67.5234 14.9258 67.8047 14.5547 67.9844 14.0859C68.1719 13.6172 68.2812 13.082 68.3125 12.4805V10.9453C68.2891 10.4531 68.2227 10.0117 68.1133 9.62109C68.0117 9.22266 67.8555 8.88281 67.6445 8.60156C67.4414 8.32031 67.1758 8.10547 66.8477 7.95703C66.5273 7.80078 66.1367 7.72266 65.6758 7.72266C65.2383 7.72266 64.8633 7.82031 64.5508 8.01562C64.2383 8.21094 63.9844 8.48438 63.7891 8.83594C63.6016 9.17969 63.4609 9.58203 63.3672 10.043C63.2812 10.5039 63.2383 11.0039 63.2383 11.543ZM81.4375 14.9648V5.32031H84.8125V18H81.6367L81.4375 14.9648ZM81.8125 12.3633L82.8086 12.3398C82.8086 13.1836 82.7109 13.9688 82.5156 14.6953C82.3203 15.4141 82.0273 16.0391 81.6367 16.5703C81.2461 17.0938 80.7539 17.5039 80.1602 17.8008C79.5664 18.0898 78.8672 18.2344 78.0625 18.2344C77.4453 18.2344 76.875 18.1484 76.3516 17.9766C75.8359 17.7969 75.3906 17.5195 75.0156 17.1445C74.6484 16.7617 74.3594 16.2734 74.1484 15.6797C73.9453 15.0781 73.8438 14.3555 73.8438 13.5117V5.32031H77.2188V13.5352C77.2188 13.9102 77.2617 14.2266 77.3477 14.4844C77.4414 14.7422 77.5703 14.9531 77.7344 15.1172C77.8984 15.2812 78.0898 15.3984 78.3086 15.4688C78.5352 15.5391 78.7852 15.5742 79.0586 15.5742C79.7539 15.5742 80.3008 15.4336 80.6992 15.1523C81.1055 14.8711 81.3906 14.4883 81.5547 14.0039C81.7266 13.5117 81.8125 12.9648 81.8125 12.3633ZM94.2344 15.1406V9.49219C94.2344 9.08594 94.168 8.73828 94.0352 8.44922C93.9023 8.15234 93.6953 7.92188 93.4141 7.75781C93.1406 7.59375 92.7852 7.51172 92.3477 7.51172C91.9727 7.51172 91.6484 7.57812 91.375 7.71094C91.1016 7.83594 90.8906 8.01953 90.7422 8.26172C90.5938 8.49609 90.5195 8.77344 90.5195 9.09375H87.1445C87.1445 8.55469 87.2695 8.04297 87.5195 7.55859C87.7695 7.07422 88.1328 6.64844 88.6094 6.28125C89.0859 5.90625 89.6523 5.61328 90.3086 5.40234C90.9727 5.19141 91.7148 5.08594 92.5352 5.08594C93.5195 5.08594 94.3945 5.25 95.1602 5.57812C95.9258 5.90625 96.5273 6.39844 96.9648 7.05469C97.4102 7.71094 97.6328 8.53125 97.6328 9.51562V14.9414C97.6328 15.6367 97.6758 16.207 97.7617 16.6523C97.8477 17.0898 97.9727 17.4727 98.1367 17.8008V18H94.7266C94.5625 17.6562 94.4375 17.2266 94.3516 16.7109C94.2734 16.1875 94.2344 15.6641 94.2344 15.1406ZM94.6797 10.2773L94.7031 12.1875H92.8164C92.3711 12.1875 91.9844 12.2383 91.6562 12.3398C91.3281 12.4414 91.0586 12.5859 90.8477 12.7734C90.6367 12.9531 90.4805 13.1641 90.3789 13.4062C90.2852 13.6484 90.2383 13.9141 90.2383 14.2031C90.2383 14.4922 90.3047 14.7539 90.4375 14.9883C90.5703 15.2148 90.7617 15.3945 91.0117 15.5273C91.2617 15.6523 91.5547 15.7148 91.8906 15.7148C92.3984 15.7148 92.8398 15.6133 93.2148 15.4102C93.5898 15.207 93.8789 14.957 94.082 14.6602C94.293 14.3633 94.4023 14.082 94.4102 13.8164L95.3008 15.2461C95.1758 15.5664 95.0039 15.8984 94.7852 16.2422C94.5742 16.5859 94.3047 16.9102 93.9766 17.2148C93.6484 17.5117 93.2539 17.7578 92.793 17.9531C92.332 18.1406 91.7852 18.2344 91.1523 18.2344C90.3477 18.2344 89.6172 18.0742 88.9609 17.7539C88.3125 17.4258 87.7969 16.9766 87.4141 16.4062C87.0391 15.8281 86.8516 15.1719 86.8516 14.4375C86.8516 13.7734 86.9766 13.1836 87.2266 12.668C87.4766 12.1523 87.8438 11.7188 88.3281 11.3672C88.8203 11.0078 89.4336 10.7383 90.168 10.5586C90.9023 10.3711 91.7539 10.2773 92.7227 10.2773H94.6797ZM103.797 0V18H100.41V0H103.797ZM110.148 5.32031V18H106.762V5.32031H110.148ZM106.551 2.01562C106.551 1.52344 106.723 1.11719 107.066 0.796875C107.41 0.476563 107.871 0.316406 108.449 0.316406C109.02 0.316406 109.477 0.476563 109.82 0.796875C110.172 1.11719 110.348 1.52344 110.348 2.01562C110.348 2.50781 110.172 2.91406 109.82 3.23438C109.477 3.55469 109.02 3.71484 108.449 3.71484C107.871 3.71484 107.41 3.55469 107.066 3.23438C106.723 2.91406 106.551 2.50781 106.551 2.01562ZM119.148 5.32031V7.71094H111.766V5.32031H119.148ZM113.594 2.19141H116.969V14.1797C116.969 14.5469 117.016 14.8281 117.109 15.0234C117.211 15.2188 117.359 15.3555 117.555 15.4336C117.75 15.5039 117.996 15.5391 118.293 15.5391C118.504 15.5391 118.691 15.5312 118.855 15.5156C119.027 15.4922 119.172 15.4688 119.289 15.4453L119.301 17.9297C119.012 18.0234 118.699 18.0977 118.363 18.1523C118.027 18.207 117.656 18.2344 117.25 18.2344C116.508 18.2344 115.859 18.1133 115.305 17.8711C114.758 17.6211 114.336 17.2227 114.039 16.6758C113.742 16.1289 113.594 15.4102 113.594 14.5195V2.19141ZM124.832 16.5703L128.195 5.32031H131.816L126.719 19.9102C126.609 20.2305 126.461 20.5742 126.273 20.9414C126.094 21.3086 125.848 21.6562 125.535 21.9844C125.23 22.3203 124.844 22.5938 124.375 22.8047C123.914 23.0156 123.348 23.1211 122.676 23.1211C122.355 23.1211 122.094 23.1016 121.891 23.0625C121.688 23.0234 121.445 22.9688 121.164 22.8984V20.4258C121.25 20.4258 121.34 20.4258 121.434 20.4258C121.527 20.4336 121.617 20.4375 121.703 20.4375C122.148 20.4375 122.512 20.3867 122.793 20.2852C123.074 20.1836 123.301 20.0273 123.473 19.8164C123.645 19.6133 123.781 19.3477 123.883 19.0195L124.832 16.5703ZM123.426 5.32031L126.18 14.5078L126.66 18.082L124.363 18.3281L119.805 5.32031H123.426Z" fill="url(#paint0_linear_262_203)"/>
<defs>
<linearGradient id="paint0_linear_262_203" x1="6.6242" y1="15.9444" x2="19.4532" y2="-26.8906" gradientUnits="userSpaceOnUse">
<stop stop-color="#373FFF"/>
<stop offset="1" stop-color="#3ACAF8"/>
</linearGradient>
</defs>
</svg>
