<svg width="324" height="25" viewBox="0 0 324 25" fill="none" xmlns="http://www.w3.org/2000/svg">
<path d="M5.63672 16.293L9.03516 1.9375H10.9336L11.3672 4.32812L7.74609 19H5.70703L5.63672 16.293ZM3.89062 1.9375L6.70312 16.293L6.46875 19H4.19531L0.410156 1.9375H3.89062ZM14.3555 16.2344L17.1328 1.9375H20.6133L16.8398 19H14.5664L14.3555 16.2344ZM12 1.9375L15.4219 16.3516L15.3281 19H13.2891L9.64453 4.31641L10.1133 1.9375H12ZM25.6055 1V19H22.2305V1H25.6055ZM25.125 12.2148H24.1992C24.207 11.332 24.3242 10.5195 24.5508 9.77734C24.7773 9.02734 25.1016 8.37891 25.5234 7.83203C25.9453 7.27734 26.4492 6.84766 27.0352 6.54297C27.6289 6.23828 28.2852 6.08594 29.0039 6.08594C29.6289 6.08594 30.1953 6.17578 30.7031 6.35547C31.2188 6.52734 31.6602 6.80859 32.0273 7.19922C32.4023 7.58203 32.6914 8.08594 32.8945 8.71094C33.0977 9.33594 33.1992 10.0938 33.1992 10.9844V19H29.8008V10.9609C29.8008 10.3984 29.7188 9.95703 29.5547 9.63672C29.3984 9.30859 29.168 9.07812 28.8633 8.94531C28.5664 8.80469 28.1992 8.73438 27.7617 8.73438C27.2773 8.73438 26.8633 8.82422 26.5195 9.00391C26.1836 9.18359 25.9141 9.43359 25.7109 9.75391C25.5078 10.0664 25.3594 10.4336 25.2656 10.8555C25.1719 11.2773 25.125 11.7305 25.125 12.2148ZM39.5273 17.5703L42.8906 6.32031H46.5117L41.4141 20.9102C41.3047 21.2305 41.1562 21.5742 40.9688 21.9414C40.7891 22.3086 40.543 22.6562 40.2305 22.9844C39.9258 23.3203 39.5391 23.5938 39.0703 23.8047C38.6094 24.0156 38.043 24.1211 37.3711 24.1211C37.0508 24.1211 36.7891 24.1016 36.5859 24.0625C36.3828 24.0234 36.1406 23.9688 35.8594 23.8984V21.4258C35.9453 21.4258 36.0352 21.4258 36.1289 21.4258C36.2227 21.4336 36.3125 21.4375 36.3984 21.4375C36.8438 21.4375 37.207 21.3867 37.4883 21.2852C37.7695 21.1836 37.9961 21.0273 38.168 20.8164C38.3398 20.6133 38.4766 20.3477 38.5781 20.0195L39.5273 17.5703ZM38.1211 6.32031L40.875 15.5078L41.3555 19.082L39.0586 19.3281L34.5 6.32031H38.1211ZM60.6914 15.4961C60.6914 15.2539 60.6211 15.0352 60.4805 14.8398C60.3398 14.6445 60.0781 14.4648 59.6953 14.3008C59.3203 14.1289 58.7773 13.9727 58.0664 13.832C57.4258 13.6914 56.8281 13.5156 56.2734 13.3047C55.7266 13.0859 55.25 12.8242 54.8438 12.5195C54.4453 12.2148 54.1328 11.8555 53.9062 11.4414C53.6797 11.0195 53.5664 10.5391 53.5664 10C53.5664 9.46875 53.6797 8.96875 53.9062 8.5C54.1406 8.03125 54.4727 7.61719 54.9023 7.25781C55.3398 6.89062 55.8711 6.60547 56.4961 6.40234C57.1289 6.19141 57.8398 6.08594 58.6289 6.08594C59.7305 6.08594 60.6758 6.26172 61.4648 6.61328C62.2617 6.96484 62.8711 7.44922 63.293 8.06641C63.7227 8.67578 63.9375 9.37109 63.9375 10.1523H60.5625C60.5625 9.82422 60.4922 9.53125 60.3516 9.27344C60.2188 9.00781 60.0078 8.80078 59.7188 8.65234C59.4375 8.49609 59.0703 8.41797 58.6172 8.41797C58.2422 8.41797 57.918 8.48438 57.6445 8.61719C57.3711 8.74219 57.1602 8.91406 57.0117 9.13281C56.8711 9.34375 56.8008 9.57812 56.8008 9.83594C56.8008 10.0312 56.8398 10.207 56.918 10.3633C57.0039 10.5117 57.1406 10.6484 57.3281 10.7734C57.5156 10.8984 57.7578 11.0156 58.0547 11.125C58.3594 11.2266 58.7344 11.3203 59.1797 11.4062C60.0938 11.5938 60.9102 11.8398 61.6289 12.1445C62.3477 12.4414 62.918 12.8477 63.3398 13.3633C63.7617 13.8711 63.9727 14.5391 63.9727 15.3672C63.9727 15.9297 63.8477 16.4453 63.5977 16.9141C63.3477 17.3828 62.9883 17.793 62.5195 18.1445C62.0508 18.4883 61.4883 18.7578 60.832 18.9531C60.1836 19.1406 59.4531 19.2344 58.6406 19.2344C57.4609 19.2344 56.4609 19.0234 55.6406 18.6016C54.8281 18.1797 54.2109 17.6445 53.7891 16.9961C53.375 16.3398 53.168 15.668 53.168 14.9805H56.3672C56.3828 15.4414 56.5 15.8125 56.7188 16.0938C56.9453 16.375 57.2305 16.5781 57.5742 16.7031C57.9258 16.8281 58.3047 16.8906 58.7109 16.8906C59.1484 16.8906 59.5117 16.832 59.8008 16.7148C60.0898 16.5898 60.3086 16.4258 60.457 16.2227C60.6133 16.0117 60.6914 15.7695 60.6914 15.4961ZM69.457 1V19H66.082V1H69.457ZM68.9766 12.2148H68.0508C68.0586 11.332 68.1758 10.5195 68.4023 9.77734C68.6289 9.02734 68.9531 8.37891 69.375 7.83203C69.7969 7.27734 70.3008 6.84766 70.8867 6.54297C71.4805 6.23828 72.1367 6.08594 72.8555 6.08594C73.4805 6.08594 74.0469 6.17578 74.5547 6.35547C75.0703 6.52734 75.5117 6.80859 75.8789 7.19922C76.2539 7.58203 76.543 8.08594 76.7461 8.71094C76.9492 9.33594 77.0508 10.0938 77.0508 10.9844V19H73.6523V10.9609C73.6523 10.3984 73.5703 9.95703 73.4062 9.63672C73.25 9.30859 73.0195 9.07812 72.7148 8.94531C72.418 8.80469 72.0508 8.73438 71.6133 8.73438C71.1289 8.73438 70.7148 8.82422 70.3711 9.00391C70.0352 9.18359 69.7656 9.43359 69.5625 9.75391C69.3594 10.0664 69.2109 10.4336 69.1172 10.8555C69.0234 11.2773 68.9766 11.7305 68.9766 12.2148ZM79.0781 12.7891V12.543C79.0781 11.6133 79.2109 10.7578 79.4766 9.97656C79.7422 9.1875 80.1289 8.50391 80.6367 7.92578C81.1445 7.34766 81.7695 6.89844 82.5117 6.57812C83.2539 6.25 84.1055 6.08594 85.0664 6.08594C86.0273 6.08594 86.8828 6.25 87.6328 6.57812C88.3828 6.89844 89.0117 7.34766 89.5195 7.92578C90.0352 8.50391 90.4258 9.1875 90.6914 9.97656C90.957 10.7578 91.0898 11.6133 91.0898 12.543V12.7891C91.0898 13.7109 90.957 14.5664 90.6914 15.3555C90.4258 16.1367 90.0352 16.8203 89.5195 17.4062C89.0117 17.9844 88.3867 18.4336 87.6445 18.7539C86.9023 19.0742 86.0508 19.2344 85.0898 19.2344C84.1289 19.2344 83.2734 19.0742 82.5234 18.7539C81.7812 18.4336 81.1523 17.9844 80.6367 17.4062C80.1289 16.8203 79.7422 16.1367 79.4766 15.3555C79.2109 14.5664 79.0781 13.7109 79.0781 12.7891ZM82.4531 12.543V12.7891C82.4531 13.3203 82.5 13.8164 82.5938 14.2773C82.6875 14.7383 82.8359 15.1445 83.0391 15.4961C83.25 15.8398 83.5234 16.1094 83.8594 16.3047C84.1953 16.5 84.6055 16.5977 85.0898 16.5977C85.5586 16.5977 85.9609 16.5 86.2969 16.3047C86.6328 16.1094 86.9023 15.8398 87.1055 15.4961C87.3086 15.1445 87.457 14.7383 87.5508 14.2773C87.6523 13.8164 87.7031 13.3203 87.7031 12.7891V12.543C87.7031 12.0273 87.6523 11.543 87.5508 11.0898C87.457 10.6289 87.3047 10.2227 87.0938 9.87109C86.8906 9.51172 86.6211 9.23047 86.2852 9.02734C85.9492 8.82422 85.543 8.72266 85.0664 8.72266C84.5898 8.72266 84.1836 8.82422 83.8477 9.02734C83.5195 9.23047 83.25 9.51172 83.0391 9.87109C82.8359 10.2227 82.6875 10.6289 82.5938 11.0898C82.5 11.543 82.4531 12.0273 82.4531 12.543ZM100.664 15.9648V6.32031H104.039V19H100.863L100.664 15.9648ZM101.039 13.3633L102.035 13.3398C102.035 14.1836 101.938 14.9688 101.742 15.6953C101.547 16.4141 101.254 17.0391 100.863 17.5703C100.473 18.0938 99.9805 18.5039 99.3867 18.8008C98.793 19.0898 98.0938 19.2344 97.2891 19.2344C96.6719 19.2344 96.1016 19.1484 95.5781 18.9766C95.0625 18.7969 94.6172 18.5195 94.2422 18.1445C93.875 17.7617 93.5859 17.2734 93.375 16.6797C93.1719 16.0781 93.0703 15.3555 93.0703 14.5117V6.32031H96.4453V14.5352C96.4453 14.9102 96.4883 15.2266 96.5742 15.4844C96.668 15.7422 96.7969 15.9531 96.9609 16.1172C97.125 16.2812 97.3164 16.3984 97.5352 16.4688C97.7617 16.5391 98.0117 16.5742 98.2852 16.5742C98.9805 16.5742 99.5273 16.4336 99.9258 16.1523C100.332 15.8711 100.617 15.4883 100.781 15.0039C100.953 14.5117 101.039 13.9648 101.039 13.3633ZM110.18 1V19H106.793V1H110.18ZM120.457 16.2344V1H123.855V19H120.797L120.457 16.2344ZM112.441 12.8125V12.5664C112.441 11.5977 112.551 10.7188 112.77 9.92969C112.988 9.13281 113.309 8.44922 113.73 7.87891C114.152 7.30859 114.672 6.86719 115.289 6.55469C115.906 6.24219 116.609 6.08594 117.398 6.08594C118.141 6.08594 118.789 6.24219 119.344 6.55469C119.906 6.86719 120.383 7.3125 120.773 7.89062C121.172 8.46094 121.492 9.13672 121.734 9.91797C121.977 10.6914 122.152 11.5391 122.262 12.4609V13C122.152 13.8828 121.977 14.7031 121.734 15.4609C121.492 16.2188 121.172 16.8828 120.773 17.4531C120.383 18.0156 119.906 18.4531 119.344 18.7656C118.781 19.0781 118.125 19.2344 117.375 19.2344C116.586 19.2344 115.883 19.0742 115.266 18.7539C114.656 18.4336 114.141 17.9844 113.719 17.4062C113.305 16.8281 112.988 16.1484 112.77 15.3672C112.551 14.5859 112.441 13.7344 112.441 12.8125ZM115.816 12.5664V12.8125C115.816 13.3359 115.855 13.8242 115.934 14.2773C116.02 14.7305 116.156 15.1328 116.344 15.4844C116.539 15.8281 116.789 16.0977 117.094 16.293C117.406 16.4805 117.785 16.5742 118.23 16.5742C118.809 16.5742 119.285 16.4453 119.66 16.1875C120.035 15.9219 120.32 15.5586 120.516 15.0977C120.719 14.6367 120.836 14.1055 120.867 13.5039V11.9688C120.844 11.4766 120.773 11.0352 120.656 10.6445C120.547 10.2461 120.383 9.90625 120.164 9.625C119.953 9.34375 119.688 9.125 119.367 8.96875C119.055 8.8125 118.684 8.73438 118.254 8.73438C117.816 8.73438 117.441 8.83594 117.129 9.03906C116.816 9.23438 116.562 9.50391 116.367 9.84766C116.18 10.1914 116.039 10.5977 115.945 11.0664C115.859 11.5273 115.816 12.0273 115.816 12.5664ZM136.23 17.5703L139.594 6.32031H143.215L138.117 20.9102C138.008 21.2305 137.859 21.5742 137.672 21.9414C137.492 22.3086 137.246 22.6562 136.934 22.9844C136.629 23.3203 136.242 23.5938 135.773 23.8047C135.312 24.0156 134.746 24.1211 134.074 24.1211C133.754 24.1211 133.492 24.1016 133.289 24.0625C133.086 24.0234 132.844 23.9688 132.562 23.8984V21.4258C132.648 21.4258 132.738 21.4258 132.832 21.4258C132.926 21.4336 133.016 21.4375 133.102 21.4375C133.547 21.4375 133.91 21.3867 134.191 21.2852C134.473 21.1836 134.699 21.0273 134.871 20.8164C135.043 20.6133 135.18 20.3477 135.281 20.0195L136.23 17.5703ZM134.824 6.32031L137.578 15.5078L138.059 19.082L135.762 19.3281L131.203 6.32031H134.824ZM143.836 12.7891V12.543C143.836 11.6133 143.969 10.7578 144.234 9.97656C144.5 9.1875 144.887 8.50391 145.395 7.92578C145.902 7.34766 146.527 6.89844 147.27 6.57812C148.012 6.25 148.863 6.08594 149.824 6.08594C150.785 6.08594 151.641 6.25 152.391 6.57812C153.141 6.89844 153.77 7.34766 154.277 7.92578C154.793 8.50391 155.184 9.1875 155.449 9.97656C155.715 10.7578 155.848 11.6133 155.848 12.543V12.7891C155.848 13.7109 155.715 14.5664 155.449 15.3555C155.184 16.1367 154.793 16.8203 154.277 17.4062C153.77 17.9844 153.145 18.4336 152.402 18.7539C151.66 19.0742 150.809 19.2344 149.848 19.2344C148.887 19.2344 148.031 19.0742 147.281 18.7539C146.539 18.4336 145.91 17.9844 145.395 17.4062C144.887 16.8203 144.5 16.1367 144.234 15.3555C143.969 14.5664 143.836 13.7109 143.836 12.7891ZM147.211 12.543V12.7891C147.211 13.3203 147.258 13.8164 147.352 14.2773C147.445 14.7383 147.594 15.1445 147.797 15.4961C148.008 15.8398 148.281 16.1094 148.617 16.3047C148.953 16.5 149.363 16.5977 149.848 16.5977C150.316 16.5977 150.719 16.5 151.055 16.3047C151.391 16.1094 151.66 15.8398 151.863 15.4961C152.066 15.1445 152.215 14.7383 152.309 14.2773C152.41 13.8164 152.461 13.3203 152.461 12.7891V12.543C152.461 12.0273 152.41 11.543 152.309 11.0898C152.215 10.6289 152.062 10.2227 151.852 9.87109C151.648 9.51172 151.379 9.23047 151.043 9.02734C150.707 8.82422 150.301 8.72266 149.824 8.72266C149.348 8.72266 148.941 8.82422 148.605 9.02734C148.277 9.23047 148.008 9.51172 147.797 9.87109C147.594 10.2227 147.445 10.6289 147.352 11.0898C147.258 11.543 147.211 12.0273 147.211 12.543ZM165.422 15.9648V6.32031H168.797V19H165.621L165.422 15.9648ZM165.797 13.3633L166.793 13.3398C166.793 14.1836 166.695 14.9688 166.5 15.6953C166.305 16.4141 166.012 17.0391 165.621 17.5703C165.23 18.0938 164.738 18.5039 164.145 18.8008C163.551 19.0898 162.852 19.2344 162.047 19.2344C161.43 19.2344 160.859 19.1484 160.336 18.9766C159.82 18.7969 159.375 18.5195 159 18.1445C158.633 17.7617 158.344 17.2734 158.133 16.6797C157.93 16.0781 157.828 15.3555 157.828 14.5117V6.32031H161.203V14.5352C161.203 14.9102 161.246 15.2266 161.332 15.4844C161.426 15.7422 161.555 15.9531 161.719 16.1172C161.883 16.2812 162.074 16.3984 162.293 16.4688C162.52 16.5391 162.77 16.5742 163.043 16.5742C163.738 16.5742 164.285 16.4336 164.684 16.1523C165.09 15.8711 165.375 15.4883 165.539 15.0039C165.711 14.5117 165.797 13.9648 165.797 13.3633ZM180.973 15.7188L183.609 6.32031H185.754L185.062 10.0117L182.426 19H180.633L180.973 15.7188ZM179.637 6.32031L181.523 15.707L181.699 19H179.59L176.379 6.32031H179.637ZM188.168 15.5547L190.008 6.32031H193.277L190.066 19H187.969L188.168 15.5547ZM186.047 6.32031L188.672 15.6484L189.035 19H187.23L184.594 10.0234L183.926 6.32031H186.047ZM194.438 12.7891V12.543C194.438 11.6133 194.57 10.7578 194.836 9.97656C195.102 9.1875 195.488 8.50391 195.996 7.92578C196.504 7.34766 197.129 6.89844 197.871 6.57812C198.613 6.25 199.465 6.08594 200.426 6.08594C201.387 6.08594 202.242 6.25 202.992 6.57812C203.742 6.89844 204.371 7.34766 204.879 7.92578C205.395 8.50391 205.785 9.1875 206.051 9.97656C206.316 10.7578 206.449 11.6133 206.449 12.543V12.7891C206.449 13.7109 206.316 14.5664 206.051 15.3555C205.785 16.1367 205.395 16.8203 204.879 17.4062C204.371 17.9844 203.746 18.4336 203.004 18.7539C202.262 19.0742 201.41 19.2344 200.449 19.2344C199.488 19.2344 198.633 19.0742 197.883 18.7539C197.141 18.4336 196.512 17.9844 195.996 17.4062C195.488 16.8203 195.102 16.1367 194.836 15.3555C194.57 14.5664 194.438 13.7109 194.438 12.7891ZM197.812 12.543V12.7891C197.812 13.3203 197.859 13.8164 197.953 14.2773C198.047 14.7383 198.195 15.1445 198.398 15.4961C198.609 15.8398 198.883 16.1094 199.219 16.3047C199.555 16.5 199.965 16.5977 200.449 16.5977C200.918 16.5977 201.32 16.5 201.656 16.3047C201.992 16.1094 202.262 15.8398 202.465 15.4961C202.668 15.1445 202.816 14.7383 202.91 14.2773C203.012 13.8164 203.062 13.3203 203.062 12.7891V12.543C203.062 12.0273 203.012 11.543 202.91 11.0898C202.816 10.6289 202.664 10.2227 202.453 9.87109C202.25 9.51172 201.98 9.23047 201.645 9.02734C201.309 8.82422 200.902 8.72266 200.426 8.72266C199.949 8.72266 199.543 8.82422 199.207 9.02734C198.879 9.23047 198.609 9.51172 198.398 9.87109C198.195 10.2227 198.047 10.6289 197.953 11.0898C197.859 11.543 197.812 12.0273 197.812 12.543ZM211.898 9.08594V19H208.523V6.32031H211.699L211.898 9.08594ZM215.719 6.23828L215.66 9.36719C215.496 9.34375 215.297 9.32422 215.062 9.30859C214.836 9.28516 214.629 9.27344 214.441 9.27344C213.965 9.27344 213.551 9.33594 213.199 9.46094C212.855 9.57812 212.566 9.75391 212.332 9.98828C212.105 10.2227 211.934 10.5078 211.816 10.8438C211.707 11.1797 211.645 11.5625 211.629 11.9922L210.949 11.7812C210.949 10.9609 211.031 10.207 211.195 9.51953C211.359 8.82422 211.598 8.21875 211.91 7.70312C212.23 7.1875 212.621 6.78906 213.082 6.50781C213.543 6.22656 214.07 6.08594 214.664 6.08594C214.852 6.08594 215.043 6.10156 215.238 6.13281C215.434 6.15625 215.594 6.19141 215.719 6.23828ZM220.688 0.988281V19H217.312V0.988281H220.688ZM228.68 6.32031L223.172 12.6016L220.219 15.5898L218.988 13.1523L221.332 10.1758L224.625 6.32031H228.68ZM225.176 19L221.426 13.1406L223.758 11.1016L229.066 19H225.176ZM239.73 15.7188L242.367 6.32031H244.512L243.82 10.0117L241.184 19H239.391L239.73 15.7188ZM238.395 6.32031L240.281 15.707L240.457 19H238.348L235.137 6.32031H238.395ZM246.926 15.5547L248.766 6.32031H252.035L248.824 19H246.727L246.926 15.5547ZM244.805 6.32031L247.43 15.6484L247.793 19H245.988L243.352 10.0234L242.684 6.32031H244.805ZM257.297 6.32031V19H253.91V6.32031H257.297ZM253.699 3.01562C253.699 2.52344 253.871 2.11719 254.215 1.79688C254.559 1.47656 255.02 1.31641 255.598 1.31641C256.168 1.31641 256.625 1.47656 256.969 1.79688C257.32 2.11719 257.496 2.52344 257.496 3.01562C257.496 3.50781 257.32 3.91406 256.969 4.23438C256.625 4.55469 256.168 4.71484 255.598 4.71484C255.02 4.71484 254.559 4.55469 254.215 4.23438C253.871 3.91406 253.699 3.50781 253.699 3.01562ZM266.297 6.32031V8.71094H258.914V6.32031H266.297ZM260.742 3.19141H264.117V15.1797C264.117 15.5469 264.164 15.8281 264.258 16.0234C264.359 16.2188 264.508 16.3555 264.703 16.4336C264.898 16.5039 265.145 16.5391 265.441 16.5391C265.652 16.5391 265.84 16.5312 266.004 16.5156C266.176 16.4922 266.32 16.4688 266.438 16.4453L266.449 18.9297C266.16 19.0234 265.848 19.0977 265.512 19.1523C265.176 19.207 264.805 19.2344 264.398 19.2344C263.656 19.2344 263.008 19.1133 262.453 18.8711C261.906 18.6211 261.484 18.2227 261.188 17.6758C260.891 17.1289 260.742 16.4102 260.742 15.5195V3.19141ZM271.512 1V19H268.137V1H271.512ZM271.031 12.2148H270.105C270.113 11.332 270.23 10.5195 270.457 9.77734C270.684 9.02734 271.008 8.37891 271.43 7.83203C271.852 7.27734 272.355 6.84766 272.941 6.54297C273.535 6.23828 274.191 6.08594 274.91 6.08594C275.535 6.08594 276.102 6.17578 276.609 6.35547C277.125 6.52734 277.566 6.80859 277.934 7.19922C278.309 7.58203 278.598 8.08594 278.801 8.71094C279.004 9.33594 279.105 10.0938 279.105 10.9844V19H275.707V10.9609C275.707 10.3984 275.625 9.95703 275.461 9.63672C275.305 9.30859 275.074 9.07812 274.77 8.94531C274.473 8.80469 274.105 8.73438 273.668 8.73438C273.184 8.73438 272.77 8.82422 272.426 9.00391C272.09 9.18359 271.82 9.43359 271.617 9.75391C271.414 10.0664 271.266 10.4336 271.172 10.8555C271.078 11.2773 271.031 11.7305 271.031 12.2148ZM295.148 15.9648V6.32031H298.523V19H295.348L295.148 15.9648ZM295.523 13.3633L296.52 13.3398C296.52 14.1836 296.422 14.9688 296.227 15.6953C296.031 16.4141 295.738 17.0391 295.348 17.5703C294.957 18.0938 294.465 18.5039 293.871 18.8008C293.277 19.0898 292.578 19.2344 291.773 19.2344C291.156 19.2344 290.586 19.1484 290.062 18.9766C289.547 18.7969 289.102 18.5195 288.727 18.1445C288.359 17.7617 288.07 17.2734 287.859 16.6797C287.656 16.0781 287.555 15.3555 287.555 14.5117V6.32031H290.93V14.5352C290.93 14.9102 290.973 15.2266 291.059 15.4844C291.152 15.7422 291.281 15.9531 291.445 16.1172C291.609 16.2812 291.801 16.3984 292.02 16.4688C292.246 16.5391 292.496 16.5742 292.77 16.5742C293.465 16.5742 294.012 16.4336 294.41 16.1523C294.816 15.8711 295.102 15.4883 295.266 15.0039C295.438 14.5117 295.523 13.9648 295.523 13.3633ZM307.957 15.4961C307.957 15.2539 307.887 15.0352 307.746 14.8398C307.605 14.6445 307.344 14.4648 306.961 14.3008C306.586 14.1289 306.043 13.9727 305.332 13.832C304.691 13.6914 304.094 13.5156 303.539 13.3047C302.992 13.0859 302.516 12.8242 302.109 12.5195C301.711 12.2148 301.398 11.8555 301.172 11.4414C300.945 11.0195 300.832 10.5391 300.832 10C300.832 9.46875 300.945 8.96875 301.172 8.5C301.406 8.03125 301.738 7.61719 302.168 7.25781C302.605 6.89062 303.137 6.60547 303.762 6.40234C304.395 6.19141 305.105 6.08594 305.895 6.08594C306.996 6.08594 307.941 6.26172 308.73 6.61328C309.527 6.96484 310.137 7.44922 310.559 8.06641C310.988 8.67578 311.203 9.37109 311.203 10.1523H307.828C307.828 9.82422 307.758 9.53125 307.617 9.27344C307.484 9.00781 307.273 8.80078 306.984 8.65234C306.703 8.49609 306.336 8.41797 305.883 8.41797C305.508 8.41797 305.184 8.48438 304.91 8.61719C304.637 8.74219 304.426 8.91406 304.277 9.13281C304.137 9.34375 304.066 9.57812 304.066 9.83594C304.066 10.0312 304.105 10.207 304.184 10.3633C304.27 10.5117 304.406 10.6484 304.594 10.7734C304.781 10.8984 305.023 11.0156 305.32 11.125C305.625 11.2266 306 11.3203 306.445 11.4062C307.359 11.5938 308.176 11.8398 308.895 12.1445C309.613 12.4414 310.184 12.8477 310.605 13.3633C311.027 13.8711 311.238 14.5391 311.238 15.3672C311.238 15.9297 311.113 16.4453 310.863 16.9141C310.613 17.3828 310.254 17.793 309.785 18.1445C309.316 18.4883 308.754 18.7578 308.098 18.9531C307.449 19.1406 306.719 19.2344 305.906 19.2344C304.727 19.2344 303.727 19.0234 302.906 18.6016C302.094 18.1797 301.477 17.6445 301.055 16.9961C300.641 16.3398 300.434 15.668 300.434 14.9805H303.633C303.648 15.4414 303.766 15.8125 303.984 16.0938C304.211 16.375 304.496 16.5781 304.84 16.7031C305.191 16.8281 305.57 16.8906 305.977 16.8906C306.414 16.8906 306.777 16.832 307.066 16.7148C307.355 16.5898 307.574 16.4258 307.723 16.2227C307.879 16.0117 307.957 15.7695 307.957 15.4961ZM319.184 13.7852H316.195C316.203 13.082 316.258 12.4766 316.359 11.9688C316.469 11.4531 316.652 10.9883 316.91 10.5742C317.176 10.1602 317.527 9.75 317.965 9.34375C318.332 9.01562 318.652 8.70312 318.926 8.40625C319.199 8.10938 319.414 7.80469 319.57 7.49219C319.727 7.17188 319.805 6.81641 319.805 6.42578C319.805 5.97266 319.734 5.59766 319.594 5.30078C319.461 4.99609 319.258 4.76562 318.984 4.60938C318.719 4.45312 318.383 4.375 317.977 4.375C317.641 4.375 317.328 4.44922 317.039 4.59766C316.75 4.73828 316.512 4.95703 316.324 5.25391C316.145 5.55078 316.051 5.94141 316.043 6.42578H312.645C312.668 5.35547 312.914 4.47266 313.383 3.77734C313.859 3.07422 314.496 2.55469 315.293 2.21875C316.09 1.875 316.984 1.70312 317.977 1.70312C319.07 1.70312 320.008 1.88281 320.789 2.24219C321.57 2.59375 322.168 3.11328 322.582 3.80078C322.996 4.48047 323.203 5.30859 323.203 6.28516C323.203 6.96484 323.07 7.57031 322.805 8.10156C322.539 8.625 322.191 9.11328 321.762 9.56641C321.332 10.0195 320.859 10.4883 320.344 10.9727C319.898 11.3711 319.594 11.7891 319.43 12.2266C319.273 12.6641 319.191 13.1836 319.184 13.7852ZM315.844 17.4062C315.844 16.9062 316.016 16.4922 316.359 16.1641C316.703 15.8281 317.164 15.6602 317.742 15.6602C318.312 15.6602 318.77 15.8281 319.113 16.1641C319.465 16.4922 319.641 16.9062 319.641 17.4062C319.641 17.8906 319.465 18.3008 319.113 18.6367C318.77 18.9727 318.312 19.1406 317.742 19.1406C317.164 19.1406 316.703 18.9727 316.359 18.6367C316.016 18.3008 315.844 17.8906 315.844 17.4062Z" fill="url(#paint0_linear_262_202)"/>
<defs>
<linearGradient id="paint0_linear_262_202" x1="18.6306" y1="16.9444" x2="24.2668" y2="-29.042" gradientUnits="userSpaceOnUse">
<stop stop-color="#373FFF"/>
<stop offset="1" stop-color="#3ACAF8"/>
</linearGradient>
</defs>
</svg>
